<svg width="24" height="24" viewBox="0 0 24 24" fill="none" xmlns="http://www.w3.org/2000/svg">
<g clip-path="url(#clip0_150_225)">
<path fill-rule="evenodd" clip-rule="evenodd" d="M7.496 3H16.505C18.987 3 21 5.012 21 7.496V16.505C21 18.987 18.988 21 16.504 21H7.496C5.013 21 3 18.988 3 16.504V7.496C3 5.013 5.012 3 7.496 3Z" stroke="#6F7177" stroke-width="1.5" stroke-linecap="round" stroke-linejoin="round"/>
<path fill-rule="evenodd" clip-rule="evenodd" d="M14.5455 9.45444C15.9514 10.8603 15.9514 13.1397 14.5455 14.5456C13.1396 15.9515 10.8602 15.9515 9.45432 14.5456C8.04843 13.1397 8.04843 10.8603 9.45432 9.45444C10.8602 8.04855 13.1396 8.04855 14.5455 9.45444Z" stroke="#6F7177" stroke-width="1.5" stroke-linecap="round" stroke-linejoin="round"/>
</g>
<defs>
<clipPath id="clip0_150_225">
<rect width="24" height="24" fill="white"/>
</clipPath>
</defs>
</svg>
