<svg width="24" height="24" viewBox="0 0 24 24" fill="none" xmlns="http://www.w3.org/2000/svg">
<path d="M10.9272 10.9315C11.4641 11.8027 12.1975 12.536 13.0686 13.0729L13.8905 12.5798C14.0655 12.4748 14.2684 12.4258 14.4721 12.4395C14.6757 12.4532 14.8703 12.5289 15.0297 12.6564L16.6248 13.9325C16.7352 14.0208 16.8256 14.1315 16.89 14.2573C16.9545 14.3831 16.9916 14.5211 16.9988 14.6623C17.006 14.8035 16.9832 14.9446 16.9319 15.0763C16.8806 15.208 16.802 15.3274 16.7012 15.4265L15.9801 16.1355C15.4977 16.6112 14.8685 16.9097 14.1949 16.9823C13.5213 17.055 12.8429 16.8976 12.2702 16.5358C10.3465 15.2916 8.70858 13.6536 7.46438 11.73C7.10252 11.1572 6.94513 10.4788 7.01781 9.80522C7.09049 9.13162 7.38897 8.50243 7.86468 8.02002L8.57368 7.29891C8.67278 7.19811 8.79213 7.11947 8.92384 7.06817C9.05556 7.01688 9.19666 6.99409 9.33783 7.00131C9.479 7.00853 9.61703 7.04559 9.74283 7.11006C9.86863 7.17453 9.97933 7.26494 10.0676 7.37532L11.3437 8.97044C11.4712 9.12981 11.5469 9.32438 11.5606 9.52802C11.5743 9.73165 11.5253 9.93461 11.4203 10.1096L10.9272 10.9315Z" stroke="#6F7177" stroke-width="1.5" stroke-linecap="round" stroke-linejoin="round"/>
<path d="M6.8676 19.9863L4.1706 20.437C4.08771 20.4508 4.00271 20.4447 3.92268 20.4191C3.84264 20.3934 3.76989 20.349 3.71046 20.2896C3.65104 20.2302 3.60667 20.1574 3.58104 20.0774C3.55541 19.9974 3.54926 19.9124 3.5631 19.8295L4.0137 17.1323C2.74292 15.1573 2.24723 12.7822 2.62197 10.4637C2.9967 8.14529 4.2154 6.04726 6.04367 4.57314C7.87194 3.09902 10.1807 2.35291 12.5259 2.47831C14.8711 2.60371 17.0871 3.59176 18.7477 5.25243C20.4084 6.91311 21.3964 9.12914 21.5218 11.4743C21.6471 13.8195 20.901 16.1282 19.4268 17.9565C17.9527 19.7847 15.8546 21.0034 13.5362 21.3781C11.2177 21.7528 8.84261 21.2571 6.8676 19.9863Z" stroke="#6F7177" stroke-width="1.5" stroke-linecap="round" stroke-linejoin="round"/>
</svg>
