<svg width="119" height="21" viewBox="0 0 119 21" fill="none" xmlns="http://www.w3.org/2000/svg">
<path d="M0.296 20V0.456H12.868V3.732H3.992V8.464H11.72V11.74H3.992V20H0.296ZM23.7572 17.564H23.6172C23.4866 17.9373 23.3092 18.292 23.0852 18.628C22.8799 18.9453 22.6092 19.2347 22.2732 19.496C21.9559 19.7573 21.5639 19.9627 21.0972 20.112C20.6492 20.2613 20.1266 20.336 19.5292 20.336C18.0172 20.336 16.8599 19.8413 16.0572 18.852C15.2546 17.8627 14.8532 16.4533 14.8532 14.624V5.384H18.4372V14.26C18.4372 15.268 18.6332 16.0427 19.0252 16.584C19.4172 17.1067 20.0426 17.368 20.9012 17.368C21.2559 17.368 21.6012 17.3213 21.9372 17.228C22.2919 17.1347 22.5999 16.9947 22.8612 16.808C23.1226 16.6027 23.3372 16.36 23.5052 16.08C23.6732 15.7813 23.7572 15.436 23.7572 15.044V5.384H27.3412V20H23.7572V17.564ZM30.9822 20V5.384H34.5662V8.408H34.7062C34.7995 8.016 34.9395 7.64267 35.1262 7.288C35.3315 6.91467 35.5928 6.588 35.9102 6.308C36.2275 6.028 36.6008 5.804 37.0302 5.636C37.4782 5.468 37.9915 5.384 38.5702 5.384H39.3542V8.772H38.2342C37.0208 8.772 36.1062 8.94933 35.4902 9.304C34.8742 9.65867 34.5662 10.2373 34.5662 11.04V20H30.9822ZM40.1583 20L43.0703 5.44H45.9823L45.3663 8.548H45.5063C46.0477 7.428 46.6823 6.57867 47.4103 6C48.1383 5.40267 49.0437 5.104 50.1263 5.104C51.3397 5.104 52.245 5.44933 52.8423 6.14C53.4583 6.83067 53.7663 7.792 53.7663 9.024C53.7663 9.34133 53.7477 9.65867 53.7103 9.976C53.673 10.2747 53.617 10.6107 53.5423 10.984L52.2263 17.564H53.9903L53.5143 20H51.3023C50.6863 20 50.1917 19.8413 49.8183 19.524C49.4637 19.2067 49.2863 18.7493 49.2863 18.152C49.2863 18.04 49.2863 17.9467 49.2863 17.872C49.2863 17.7787 49.305 17.648 49.3423 17.48L50.6023 11.18C50.7143 10.62 50.7703 10.1067 50.7703 9.64C50.7703 8.98667 50.621 8.492 50.3223 8.156C50.0237 7.80133 49.5383 7.624 48.8663 7.624C47.8957 7.624 47.0463 8.03467 46.3183 8.856C45.9077 9.304 45.553 9.82667 45.2543 10.424C44.9557 11.0027 44.7503 11.5813 44.6383 12.16L43.0703 20H40.1583ZM67.1051 20C66.4518 20 65.9291 19.832 65.5371 19.496C65.1638 19.16 64.9771 18.6933 64.9771 18.096C64.9771 17.7787 65.0051 17.508 65.0611 17.284L65.1731 16.752H65.0611C64.4638 17.9467 63.8011 18.8427 63.0731 19.44C62.3638 20.0373 61.4491 20.336 60.3291 20.336C58.9851 20.336 57.9491 19.8507 57.2211 18.88C56.4931 17.9093 56.1291 16.612 56.1291 14.988C56.1291 13.7187 56.2878 12.4867 56.6051 11.292C56.9225 10.0973 57.3798 9.04267 57.9771 8.128C58.5931 7.21333 59.3305 6.48533 60.1891 5.944C61.0478 5.384 62.0185 5.104 63.1011 5.104C64.0531 5.104 64.8745 5.356 65.5651 5.86C66.2558 6.34533 66.6758 7.01733 66.8251 7.876H66.9651L67.4411 5.44H70.3531L67.9171 17.564H69.7931L69.3171 20H67.1051ZM61.4491 17.844C62.0465 17.844 62.5691 17.7133 63.0171 17.452C63.4838 17.1907 63.9038 16.8547 64.2771 16.444C65.0798 15.5853 65.6118 14.5027 65.8731 13.196L66.4611 10.256C66.5171 9.93867 66.4985 9.62133 66.4051 9.304C66.3118 8.98667 66.1438 8.70667 65.9011 8.464C65.6585 8.20267 65.3411 7.99733 64.9491 7.848C64.5758 7.68 64.1465 7.596 63.6611 7.596C62.5785 7.596 61.7105 7.932 61.0571 8.604C60.4038 9.25733 59.9465 10.228 59.6851 11.516L59.2651 13.56C59.2278 13.784 59.1905 14.036 59.1531 14.316C59.1345 14.596 59.1251 14.848 59.1251 15.072C59.1251 15.8933 59.3118 16.5653 59.6851 17.088C60.0771 17.592 60.6651 17.844 61.4491 17.844ZM75.2834 20C74.3874 20 73.7247 19.804 73.2954 19.412C72.8847 19.02 72.6794 18.4787 72.6794 17.788C72.6794 17.6387 72.6887 17.4707 72.7074 17.284C72.726 17.0973 72.754 16.9107 72.7914 16.724L74.5554 7.876H72.4274L72.9034 5.44H73.9954C74.5367 5.44 74.9007 5.328 75.0874 5.104C75.2927 4.88 75.442 4.516 75.5354 4.012L76.0394 1.464H78.7554L77.9714 5.44H80.8834L80.4074 7.876H77.4674L75.5354 17.564H78.3634L77.8874 20H75.2834ZM86.0956 5.44L84.3316 14.288C84.2756 14.5493 84.2289 14.8107 84.1916 15.072C84.1729 15.3333 84.1636 15.5667 84.1636 15.772C84.1636 16.4253 84.3036 16.9293 84.5836 17.284C84.8636 17.6387 85.3303 17.816 85.9836 17.816C86.9169 17.816 87.7476 17.4053 88.4756 16.584C88.9049 16.0987 89.2596 15.5667 89.5396 14.988C89.8383 14.3907 90.0436 13.8027 90.1556 13.224L91.7236 5.44H94.6356L92.1996 17.564H94.0756L93.5996 20H91.3596C90.7063 20 90.1929 19.832 89.8196 19.496C89.4649 19.1413 89.2876 18.6653 89.2876 18.068C89.2876 17.8253 89.3156 17.5453 89.3716 17.228L89.4276 16.892H89.2876C88.7463 18.012 88.1209 18.8707 87.4116 19.468C86.7023 20.0467 85.8249 20.336 84.7796 20.336C83.5849 20.336 82.6796 19.9907 82.0636 19.3C81.4663 18.6093 81.1676 17.648 81.1676 16.416C81.1676 16.0987 81.1863 15.7813 81.2236 15.464C81.2609 15.1467 81.3169 14.8013 81.3916 14.428L83.1836 5.44H86.0956ZM95.9083 20L98.8203 5.44H101.732L101.116 8.548H101.284C101.452 8.17467 101.658 7.80133 101.9 7.428C102.162 7.05467 102.47 6.728 102.824 6.448C103.179 6.14933 103.58 5.90667 104.028 5.72C104.495 5.53333 105.018 5.44 105.596 5.44H106.408L105.82 8.324H104.84C103.552 8.324 102.554 8.632 101.844 9.248C101.135 9.864 100.678 10.704 100.472 11.768L98.8203 20H95.9083ZM112.014 20.336C110.129 20.336 108.692 19.804 107.702 18.74C106.732 17.6573 106.246 16.136 106.246 14.176C106.246 12.9813 106.424 11.8427 106.778 10.76C107.152 9.65867 107.674 8.688 108.346 7.848C109.018 7.008 109.83 6.34533 110.782 5.86C111.734 5.356 112.798 5.104 113.974 5.104C114.553 5.104 115.132 5.17867 115.71 5.328C116.308 5.47733 116.84 5.71067 117.306 6.028C117.773 6.34533 118.146 6.756 118.426 7.26C118.725 7.764 118.874 8.37067 118.874 9.08C118.874 10.6293 118.09 11.8147 116.522 12.636C114.973 13.4573 112.537 13.9053 109.214 13.98C109.158 14.3533 109.13 14.6613 109.13 14.904C109.13 15.8 109.373 16.5187 109.858 17.06C110.362 17.6013 111.146 17.872 112.21 17.872C113.013 17.872 113.741 17.6947 114.394 17.34C115.048 16.9853 115.673 16.4347 116.27 15.688L118.118 17.228C117.204 18.3667 116.242 19.1693 115.234 19.636C114.226 20.1027 113.153 20.336 112.014 20.336ZM113.75 7.428C112.742 7.428 111.865 7.77333 111.118 8.464C110.39 9.136 109.914 10.0507 109.69 11.208L109.55 11.936C110.876 11.88 111.958 11.7867 112.798 11.656C113.638 11.5253 114.292 11.348 114.758 11.124C115.244 10.9 115.57 10.6293 115.738 10.312C115.906 9.99467 115.99 9.63067 115.99 9.22C115.99 8.86533 115.925 8.576 115.794 8.352C115.664 8.10933 115.486 7.92267 115.262 7.792C115.057 7.64267 114.824 7.54933 114.562 7.512C114.301 7.456 114.03 7.428 113.75 7.428Z" fill="white"/>
</svg>
