<svg width="32" height="32" viewBox="0 0 32 32" fill="none" xmlns="http://www.w3.org/2000/svg">
<g clip-path="url(#clip0_147_94)">
<path d="M12.0947 25.428H9.23866C7.76533 25.428 6.572 24.2347 6.572 22.7613V21.0093C6.572 20.3027 6.29066 19.624 5.79066 19.124L4.552 17.8853C3.51066 16.844 3.51066 15.156 4.552 14.1147L5.79066 12.876C6.29066 12.376 6.572 11.6973 6.572 10.9907V9.23866C6.572 7.76533 7.76533 6.572 9.23866 6.572H10.9907C11.6973 6.572 12.376 6.29066 12.876 5.79066L14.1147 4.552C15.156 3.51066 16.844 3.51066 17.8853 4.552L19.124 5.79066C19.624 6.29066 20.3027 6.572 21.0093 6.572H22.7613C24.2347 6.572 25.428 7.76533 25.428 9.23866V10.9907C25.428 11.6973 25.7093 12.376 26.2093 12.876L27.448 14.1147C28.4893 15.156 28.4893 16.844 27.448 17.8853L26.2093 19.124C25.7093 19.624 25.428 20.3027 25.428 21.0093V22.7613C25.428 24.2347 24.2347 25.428 22.7613 25.428H21.0093C20.3027 25.428 19.624 25.7093 19.124 26.2093L17.8853 27.448C16.844 28.4893 15.156 28.4893 14.1147 27.448L12.0947 25.428Z" stroke="#121212" stroke-width="1.5" stroke-linecap="round" stroke-linejoin="round"/>
<path d="M18.1907 11.9613C20.0721 11.9613 21.3334 13.7147 21.3334 15.3467C21.3334 18.66 16.0947 21.3733 16.0001 21.3733C15.9054 21.3733 10.6667 18.66 10.6667 15.3467C10.6667 13.7147 11.9281 11.9613 13.8094 11.9613C14.8854 11.9613 15.5921 12.4933 16.0001 12.968C16.4081 12.4933 17.1147 11.9613 18.1907 11.9613Z" stroke="#121212" stroke-width="1.5" stroke-linecap="round" stroke-linejoin="round"/>
</g>
<defs>
<clipPath id="clip0_147_94">
<rect width="32" height="32" fill="white"/>
</clipPath>
</defs>
</svg>
