<svg width="33" height="32" viewBox="0 0 33 32" fill="none" xmlns="http://www.w3.org/2000/svg">
<path d="M6.66699 12H4.66699" stroke="#121212" stroke-width="1.5" stroke-linecap="round" stroke-linejoin="round"/>
<path d="M6.66699 20H4.66699" stroke="#121212" stroke-width="1.5" stroke-linecap="round" stroke-linejoin="round"/>
<path d="M6.00016 16H3.3335" stroke="#121212" stroke-width="1.5" stroke-linecap="round" stroke-linejoin="round"/>
<path d="M8.18164 7.51466C9.85987 5.83643 11.9981 4.69354 14.3258 4.23052C16.6536 3.7675 19.0664 4.00514 21.2591 4.91339C23.4518 5.82164 25.326 7.35971 26.6446 9.3331C27.9631 11.3065 28.6669 13.6266 28.6669 15.9999C28.6669 18.3733 27.9631 20.6934 26.6446 22.6668C25.326 24.6402 23.4518 26.1782 21.2591 27.0865C19.0664 27.9947 16.6536 28.2324 14.3258 27.7694C11.9981 27.3063 9.85987 26.1635 8.18164 24.4852" stroke="#121212" stroke-width="1.5" stroke-linecap="round" stroke-linejoin="round"/>
<path d="M21.3335 19.512L17.3335 21.8213C17.1308 21.9384 16.9009 22 16.6668 22C16.4328 22 16.2029 21.9384 16.0002 21.8213L12.0002 19.512C11.7975 19.395 11.6292 19.2267 11.5121 19.024C11.3951 18.8213 11.3335 18.5914 11.3335 18.3573V13.6427C11.3335 13.4086 11.3951 13.1787 11.5121 12.976C11.6292 12.7733 11.7975 12.605 12.0002 12.488L16.0002 10.1787C16.2029 10.0616 16.4328 10 16.6668 10C16.9009 10 17.1308 10.0616 17.3335 10.1787L21.3335 12.488C21.5362 12.605 21.7045 12.7733 21.8215 12.976C21.9385 13.1787 22.0002 13.4086 22.0002 13.6427V18.3573C22.0002 18.5914 21.9385 18.8213 21.8215 19.024C21.7045 19.2267 21.5362 19.395 21.3335 19.512Z" stroke="#121212" stroke-width="1.5" stroke-linecap="round" stroke-linejoin="round"/>
<path d="M21.8215 12.976L17.3335 15.5672C17.1308 15.6842 16.9009 15.7458 16.6669 15.7458C16.4328 15.7458 16.2029 15.6842 16.0002 15.5672L11.5122 12.976" stroke="#121212" stroke-width="1.5" stroke-linecap="round" stroke-linejoin="round"/>
<path d="M16.667 22V15.7447" stroke="#121212" stroke-width="1.5" stroke-linecap="round" stroke-linejoin="round"/>
</svg>
