<svg width="33" height="32" viewBox="0 0 33 32" fill="none" xmlns="http://www.w3.org/2000/svg">
<g clip-path="url(#clip0_147_88)">
<path d="M11.3347 28.6693C6.73867 28.6693 3 24.9307 3 20.3347C3 15.7387 6.73867 12 11.3347 12C15.9307 12 19.6693 15.7387 19.6693 20.3347C19.6693 24.9307 15.9307 28.6693 11.3347 28.6693Z" stroke="#121212" stroke-width="1.5" stroke-linecap="round" stroke-linejoin="round"/>
<path d="M21.3322 28.6693C16.7362 28.6693 12.9976 24.9307 12.9976 20.3347C12.9976 15.7387 16.7362 12 21.3322 12C25.9282 12 29.6669 15.7387 29.6669 20.3347C29.6669 24.9307 25.9282 28.6693 21.3322 28.6693Z" stroke="#121212" stroke-width="1.5" stroke-linecap="round" stroke-linejoin="round"/>
<path d="M16.3469 20C11.7509 20 8.01221 16.2613 8.01221 11.6653C8.01221 7.06932 11.7509 3.33066 16.3469 3.33066C20.9429 3.33066 24.6815 7.06932 24.6815 11.6653C24.6815 16.2613 20.9429 20 16.3469 20Z" stroke="#121212" stroke-width="1.5" stroke-linecap="round" stroke-linejoin="round"/>
</g>
<defs>
<clipPath id="clip0_147_88">
<rect width="32" height="32" fill="white" transform="translate(0.333496)"/>
</clipPath>
</defs>
</svg>
