<svg width="16" height="18" viewBox="0 0 16 18" fill="none" xmlns="http://www.w3.org/2000/svg">
<path d="M13.6017 6.53367L12.864 15.9612C12.8212 16.4644 12.4139 16.8432 11.9183 16.8432H4.42149C3.92303 16.8432 3.51857 16.4644 3.47584 15.9641L2.73812 6.53367C2.71249 6.21556 2.44189 5.97842 2.12573 6.00156C1.81241 6.02759 1.57885 6.30521 1.60163 6.62331L2.33935 16.0567C2.4305 17.1642 3.32488 18 4.42149 18H11.9212C13.0149 18 13.9093 17.1642 14.0033 16.0538L14.741 6.62331C14.7667 6.30521 14.5331 6.02759 14.2169 6.00156C13.9008 5.97842 13.6273 6.21556 13.6017 6.53367Z" fill="#6E6E6E"/>
<path d="M5.36777 3.42857C5.68002 3.42857 5.9355 3.16302 5.9355 2.83846V1.67593C5.9355 1.40152 6.1484 1.18023 6.41239 1.18023H9.75914C10.0231 1.18023 10.236 1.40152 10.236 1.67593V2.83846C10.236 3.16302 10.4915 3.42857 10.8038 3.42857C11.116 3.42857 11.3715 3.16302 11.3715 2.83846V1.67593C11.3715 0.752398 10.6476 0 9.75914 0H6.41239C5.5239 0 4.80005 0.752398 4.80005 1.67593V2.83846C4.80005 3.16597 5.05269 3.42857 5.36777 3.42857Z" fill="#6E6E6E"/>
<path d="M0.572348 5.4285H15.4277C15.7424 5.4285 16 5.17136 16 4.85707C16 4.54279 15.7424 4.28564 15.4277 4.28564H0.572348C0.257557 4.28564 0 4.54279 0 4.85707C0 5.17136 0.257557 5.4285 0.572348 5.4285Z" fill="#6E6E6E"/>
</svg>
