<svg width="248" height="46" viewBox="0 0 248 46" fill="none" xmlns="http://www.w3.org/2000/svg">
<path d="M3.32 38V10.28H20.84V14.56H8.36V21.64H19.44V25.92H8.36V38H3.32ZM37.0313 38.6C35.1379 38.6 33.5113 38.3333 32.1513 37.8C30.7913 37.24 29.6579 36.4667 28.7513 35.48C27.8713 34.4933 27.2179 33.3333 26.7913 32C26.3646 30.6667 26.1513 29.2 26.1513 27.6V10.28H31.2313V27.12C31.2313 28.3733 31.3646 29.4533 31.6313 30.36C31.9246 31.24 32.3246 31.96 32.8313 32.52C33.3646 33.08 33.9779 33.4933 34.6713 33.76C35.3913 34.0267 36.1913 34.16 37.0713 34.16C37.9513 34.16 38.7513 34.0267 39.4713 33.76C40.1913 33.4933 40.8046 33.08 41.3113 32.52C41.8446 31.96 42.2446 31.24 42.5113 30.36C42.8046 29.4533 42.9513 28.3733 42.9513 27.12V10.28H48.0312V27.6C48.0312 29.2 47.8046 30.6667 47.3513 32C46.9246 33.3333 46.2579 34.4933 45.3513 35.48C44.4713 36.4667 43.3379 37.24 41.9513 37.8C40.5646 38.3333 38.9246 38.6 37.0313 38.6ZM63.1163 10C67.1163 10 70.1696 10.7333 72.2763 12.2C74.4096 13.6667 75.4763 15.9067 75.4763 18.92C75.4763 22.68 73.6229 25.2267 69.9163 26.56C70.4229 27.1733 70.9963 27.92 71.6363 28.8C72.2763 29.68 72.9296 30.64 73.5963 31.68C74.2629 32.6933 74.9029 33.7467 75.5163 34.84C76.1296 35.9067 76.6763 36.96 77.1562 38H71.5163C71.0096 37.04 70.4629 36.08 69.8763 35.12C69.2896 34.1333 68.6896 33.1867 68.0763 32.28C67.4896 31.3467 66.9029 30.48 66.3163 29.68C65.7296 28.8533 65.1829 28.12 64.6763 27.48C64.3029 27.5067 63.9829 27.52 63.7163 27.52C63.4496 27.52 63.1963 27.52 62.9563 27.52H60.5163V38H55.4763V10.68C56.7029 10.4133 58.0096 10.24 59.3963 10.16C60.7829 10.0533 62.0229 10 63.1163 10ZM63.4763 14.36C62.4096 14.36 61.4229 14.4 60.5163 14.48V23.44H62.7162C63.9429 23.44 65.0229 23.3733 65.9563 23.24C66.8896 23.1067 67.6629 22.8667 68.2763 22.52C68.9163 22.1733 69.3963 21.7067 69.7163 21.12C70.0363 20.5333 70.1963 19.7867 70.1963 18.88C70.1963 18.0267 70.0363 17.3067 69.7163 16.72C69.3963 16.1333 68.9296 15.6667 68.3163 15.32C67.7296 14.9733 67.0229 14.7333 66.1963 14.6C65.3696 14.44 64.4629 14.36 63.4763 14.36ZM100.742 38C99.8355 36.48 98.8222 34.8533 97.7022 33.12C96.5822 31.36 95.4222 29.6 94.2222 27.84C93.0222 26.0533 91.7955 24.3333 90.5422 22.68C89.3155 21 88.1422 19.4933 87.0222 18.16V38H82.0622V10.28H86.1822C87.2489 11.4 88.3955 12.7333 89.6222 14.28C90.8489 15.8 92.0755 17.3867 93.3022 19.04C94.5555 20.6933 95.7555 22.36 96.9022 24.04C98.0755 25.6933 99.1155 27.24 100.022 28.68V10.28H105.022V38H100.742ZM112.672 10.28H117.712V38H112.672V10.28ZM144.671 10.28V14.64H136.151V38H131.071V14.64H122.551V10.28H144.671ZM160.195 38.6C158.302 38.6 156.675 38.3333 155.315 37.8C153.955 37.24 152.822 36.4667 151.915 35.48C151.035 34.4933 150.382 33.3333 149.955 32C149.529 30.6667 149.315 29.2 149.315 27.6V10.28H154.395V27.12C154.395 28.3733 154.529 29.4533 154.795 30.36C155.089 31.24 155.489 31.96 155.995 32.52C156.529 33.08 157.142 33.4933 157.835 33.76C158.555 34.0267 159.355 34.16 160.235 34.16C161.115 34.16 161.915 34.0267 162.635 33.76C163.355 33.4933 163.969 33.08 164.475 32.52C165.009 31.96 165.409 31.24 165.675 30.36C165.969 29.4533 166.115 28.3733 166.115 27.12V10.28H171.195V27.6C171.195 29.2 170.969 30.6667 170.515 32C170.089 33.3333 169.422 34.4933 168.515 35.48C167.635 36.4667 166.502 37.24 165.115 37.8C163.729 38.3333 162.089 38.6 160.195 38.6ZM186.28 10C190.28 10 193.334 10.7333 195.44 12.2C197.574 13.6667 198.64 15.9067 198.64 18.92C198.64 22.68 196.787 25.2267 193.08 26.56C193.587 27.1733 194.16 27.92 194.8 28.8C195.44 29.68 196.094 30.64 196.76 31.68C197.427 32.6933 198.067 33.7467 198.68 34.84C199.294 35.9067 199.84 36.96 200.32 38H194.68C194.174 37.04 193.627 36.08 193.04 35.12C192.454 34.1333 191.854 33.1867 191.24 32.28C190.654 31.3467 190.067 30.48 189.48 29.68C188.894 28.8533 188.347 28.12 187.84 27.48C187.467 27.5067 187.147 27.52 186.88 27.52C186.614 27.52 186.36 27.52 186.12 27.52H183.68V38H178.64V10.68C179.867 10.4133 181.174 10.24 182.56 10.16C183.947 10.0533 185.187 10 186.28 10ZM186.64 14.36C185.574 14.36 184.587 14.4 183.68 14.48V23.44H185.88C187.107 23.44 188.187 23.3733 189.12 23.24C190.054 23.1067 190.827 22.8667 191.44 22.52C192.08 22.1733 192.56 21.7067 192.88 21.12C193.2 20.5333 193.36 19.7867 193.36 18.88C193.36 18.0267 193.2 17.3067 192.88 16.72C192.56 16.1333 192.094 15.6667 191.48 15.32C190.894 14.9733 190.187 14.7333 189.36 14.6C188.534 14.44 187.627 14.36 186.64 14.36ZM205.226 38V10.28H223.026V14.56H210.266V21.4H221.626V25.6H210.266V33.72H223.986V38H205.226Z" fill="#D3D3D3"/>
<path d="M241.608 1.125C243.148 1.125 244.519 1.57881 245.701 2.35096C245.761 2.39121 245.814 2.44378 245.856 2.50565C245.897 2.56752 245.927 2.63749 245.943 2.71157C245.959 2.78565 245.962 2.86238 245.95 2.93739C245.938 3.0124 245.913 3.08422 245.875 3.14874C245.837 3.21325 245.787 3.26921 245.729 3.31341C245.671 3.35761 245.605 3.38919 245.535 3.40635C245.465 3.42351 245.393 3.42593 245.322 3.41343C245.252 3.40094 245.184 3.37378 245.123 3.33353C244.095 2.66157 242.949 2.27885 241.608 2.27885C237.966 2.27885 235.087 5.13814 235.087 8.625C235.087 12.1118 237.966 14.9712 241.608 14.9712C242.897 14.9712 244.113 14.5576 245.132 13.9075C245.192 13.8594 245.262 13.8253 245.336 13.8075C245.41 13.7896 245.486 13.7884 245.561 13.8038C245.635 13.8192 245.706 13.851 245.768 13.897C245.83 13.9431 245.882 14.0024 245.921 14.0712C245.961 14.14 245.986 14.2168 245.996 14.2966C246.005 14.3763 245.999 14.4574 245.977 14.5345C245.956 14.6116 245.919 14.6831 245.87 14.7443C245.821 14.8055 245.76 14.8552 245.692 14.89C244.521 15.6376 243.115 16.125 241.608 16.125C237.426 16.125 234 12.7852 234 8.625C234 4.4648 237.426 1.125 241.608 1.125ZM241.608 3.43269C242.793 3.43269 243.755 3.71072 244.648 4.40625C244.706 4.45085 244.756 4.5073 244.793 4.57233C244.831 4.63736 244.856 4.7097 244.867 4.78512C244.878 4.86054 244.875 4.93754 244.858 5.0117C244.841 5.08585 244.81 5.15568 244.768 5.21711C244.725 5.27854 244.671 5.33036 244.609 5.36958C244.548 5.40879 244.479 5.43461 244.408 5.44555C244.337 5.45649 244.264 5.45234 244.195 5.43331C244.125 5.41429 244.06 5.38078 244.002 5.33474C243.281 4.77227 242.648 4.58654 241.608 4.58654C240.126 4.58654 239.059 5.05582 238.347 5.77644C237.636 6.49706 237.261 7.48714 237.261 8.625C237.261 9.46486 237.511 10.2234 237.965 10.8696C238.013 10.9295 238.049 10.9991 238.071 11.0742C238.092 11.1493 238.099 11.2284 238.091 11.3064C238.083 11.3845 238.06 11.46 238.023 11.5283C237.987 11.5966 237.938 11.6563 237.879 11.7036C237.819 11.7509 237.752 11.7849 237.68 11.8036C237.608 11.8222 237.533 11.8251 237.46 11.812C237.388 11.7989 237.318 11.7701 237.256 11.7274C237.194 11.6847 237.14 11.629 237.099 11.5637C236.512 10.7289 236.174 9.71409 236.174 8.625C236.174 7.21384 236.654 5.88792 237.592 4.9381C238.529 3.98828 239.905 3.43269 241.608 3.43269ZM244.368 11.789C244.481 11.7961 244.59 11.8408 244.678 11.9168C244.766 11.9928 244.83 12.0964 244.86 12.2128C244.89 12.3293 244.885 12.4528 244.845 12.566C244.806 12.6792 244.734 12.7763 244.639 12.8438C243.753 13.5216 242.783 13.8173 241.608 13.8173C240.626 13.8173 239.712 13.5915 238.925 13.1773C238.858 13.1461 238.797 13.1008 238.747 13.0443C238.697 12.9877 238.658 12.9209 238.633 12.8479C238.607 12.775 238.596 12.6973 238.6 12.6197C238.604 12.5421 238.622 12.466 238.654 12.3962C238.686 12.3263 238.731 12.264 238.787 12.213C238.842 12.1621 238.906 12.1235 238.976 12.0997C239.046 12.0758 239.119 12.0671 239.192 12.0742C239.265 12.0812 239.336 12.1038 239.4 12.1406C240.025 12.4691 240.782 12.6635 241.608 12.6635C242.626 12.6635 243.294 12.4541 244.011 11.9062C244.113 11.8237 244.239 11.7822 244.368 11.789Z" fill="#D3D3D3"/>
</svg>
